<svg width="124" height="124" viewBox="0 0 124 124" fill="none" xmlns="http://www.w3.org/2000/svg">
<path d="M50.0433 17.0955V10V9.5H49.5433H38.2491H37.7491V10V17.0955H14H13.5V17.5955V113.034V113.534H14H110H110.5V113.034V17.5955V17.0955H110H86.2509V10V9.5H85.7509H74.4567H73.9567V10V17.0955H50.0433ZM50.0433 35.7585V28.9933H73.9567V35.7585V36.2585H74.4567H85.7509H86.2509V35.7585V28.9933H98.5381V101.306H25.4619V28.9933H37.7491V35.7585V36.2585H38.2491H49.5433H50.0433V35.7585Z" fill="#F45D11" stroke="#F45D11"/>
<path d="M78.4752 54.2903L78.4862 54.3021L78.498 54.3131C78.9831 54.7679 79.2983 55.6487 79.2983 57.123V79.765C79.2983 81.2347 78.985 82.1474 78.4864 82.646C78.0015 83.1309 77.3215 83.3981 76.3841 83.3981C75.4549 83.3981 74.7505 83.1352 74.2223 82.646C73.7612 82.145 73.4698 81.2298 73.4698 79.765V57.123C73.4698 55.6421 73.7677 54.756 74.2218 54.3019C74.7529 53.7709 75.457 53.4899 76.3841 53.4899C77.312 53.4899 77.9882 53.7709 78.4752 54.2903ZM84.1731 87.538L84.1731 87.538L84.1769 87.534C86.0071 85.576 86.8873 82.8216 86.8873 79.3457V57.5423C86.8873 54.0684 86.008 51.3314 84.175 49.4119C82.3381 47.4482 79.714 46.5 76.3841 46.5C73.0541 46.5 70.43 47.4482 68.5931 49.4119C66.7601 51.3315 65.8809 54.0684 65.8809 57.5423V79.3457C65.8809 82.8216 66.761 85.576 68.5913 87.534L68.595 87.538C70.4327 89.4611 73.0561 90.388 76.3841 90.388C79.712 90.388 82.3355 89.4611 84.1731 87.538Z" fill="black" stroke="black"/>
<path d="M56.0578 87.5421L56.0616 87.5381C57.9342 85.5805 58.8359 82.8245 58.8359 79.3457V76.0512C58.8359 73.9648 58.5089 72.1377 57.8373 70.5837C57.2635 69.222 56.3839 68.1264 55.2059 67.3052C57.6554 65.5965 58.8359 62.7351 58.8359 58.8601V57.5423C58.8359 54.0654 57.9351 51.327 56.0597 49.4077C54.181 47.4449 51.4773 46.5 48.0332 46.5C44.589 46.5 41.8853 47.4449 40.0066 49.4078C38.1313 51.327 37.2305 54.0655 37.2305 57.5423V58.8601C37.2305 62.7635 38.4063 65.6296 40.8537 67.3099C39.679 68.1306 38.8017 69.2246 38.229 70.5838C37.5574 72.1378 37.2305 73.9648 37.2305 76.0512V79.3457C37.2305 82.8245 38.1322 85.5805 40.0047 87.5382L40.0085 87.5421C41.8879 89.4642 44.5909 90.388 48.0332 90.388C51.4754 90.388 54.1784 89.4642 56.0578 87.5421ZM50.2767 82.566L50.2713 82.5707L50.2662 82.5756C49.6909 83.117 48.9598 83.3981 48.0332 83.3981C47.1068 83.3981 46.3494 83.1168 45.7298 82.566C45.1834 82.0803 44.8194 81.0215 44.8194 79.166V75.2725C44.8194 73.6352 45.1358 72.5913 45.6511 72.0112C46.2215 71.3741 46.9961 71.0405 48.0332 71.0405C49.0712 71.0405 49.8186 71.3742 50.3462 72.0006L50.3554 72.0115L50.3651 72.0219C50.9125 72.6014 51.2469 73.6403 51.2469 75.2725V79.1607C51.2069 81.0127 50.8274 82.0765 50.2767 82.566ZM50.3254 54.3717L50.3309 54.3769L50.3366 54.3819C50.8829 54.8676 51.2469 55.9264 51.2469 57.7819V60.118C51.2469 61.7526 50.8915 62.7252 50.3366 63.2184C49.7169 63.7693 48.9595 64.0505 48.0332 64.0505C47.0644 64.0505 46.2905 63.7677 45.6754 63.2233C45.1553 62.7296 44.8194 61.7536 44.8194 60.118V57.7819C44.8194 55.9264 45.1834 54.8676 45.7298 54.3819L45.7354 54.3769L45.7409 54.3717C46.3619 53.7853 47.1155 53.4899 48.0332 53.4899C48.9508 53.4899 49.7045 53.7853 50.3254 54.3717Z" fill="black" stroke="black"/>
</svg>
