<svg width="32" height="32" viewBox="0 0 32 32" fill="none" xmlns="http://www.w3.org/2000/svg">
<path d="M22.6658 15.9993C22.6658 15.9993 20.3533 17.7601 19.5978 18.5156C18.6125 18.2223 16.7738 17.5556 15.6085 16.3903C14.4431 15.2249 13.7765 13.3863 13.4831 12.4009C14.2387 11.6454 15.9994 9.33295 15.9994 9.33295C15.9994 9.33295 11.1041 4.23958 9.33248 2.66602C9.33248 2.66602 5.81108 5.63568 4.77381 6.67295C4.26714 7.17962 3.98181 7.87562 3.99248 8.58628C4.02314 10.485 4.52581 17.0796 9.72314 22.2769C14.9205 27.4743 21.5151 27.9756 23.4151 28.0076H23.4525C24.1565 28.0076 24.8218 27.7303 25.3258 27.2263C26.3631 26.189 29.3327 22.6676 29.3327 22.6676L22.6658 15.9993ZM23.4391 25.3396C21.7751 25.3116 16.0818 24.865 11.6085 20.3903C7.12048 15.9023 6.68581 10.189 6.65914 8.55828L9.33248 5.88495L12.7805 9.33295L11.0565 11.057C10.8998 11.2136 10.7845 11.4067 10.7212 11.619C10.6579 11.8313 10.6485 12.0561 10.6938 12.273C10.7258 12.4263 11.5085 16.0623 13.7218 18.2756C15.9351 20.4889 19.5711 21.2716 19.7245 21.3036C19.9412 21.3502 20.1662 21.3416 20.3787 21.2784C20.5912 21.2153 20.7844 21.0997 20.9405 20.9423L22.6658 19.2183L26.1138 22.6663L23.4391 25.3396Z" fill="black"/>
</svg>
