<svg width="124" height="124" viewBox="0 0 124 124" fill="none" xmlns="http://www.w3.org/2000/svg">
<path d="M87.368 77.2518V115.042H14.2969V20.0332H49.2579L43.3065 27.319H21.6093V107.729H80.0822V78.7997L87.368 77.2518Z" fill="black"/>
<path d="M88.368 77.2518V76.017L87.1602 76.2736L79.8744 77.8215L79.0822 77.9898V78.7997V106.729H22.6093V28.319H43.3065H43.7808L44.0809 27.9516L50.0323 20.6658L51.3659 19.0332H49.2579H14.2969H13.2969V20.0332V115.042V116.042H14.2969H87.368H88.368V115.042V77.2518Z" fill="#F45D11" stroke="#F45D11" stroke-width="2"/>
<path d="M69.5883 85.793V85.293H69.0883H32.5527H32.0527V85.793V93.1054V93.6054H32.5527H69.0883H69.5883V93.1054V85.793Z" fill="black" stroke="black"/>
<mask id="path-4-outside-1_1_210" maskUnits="userSpaceOnUse" x="31.5527" y="70.168" width="27" height="10" fill="black">
<rect fill="white" x="31.5527" y="70.168" width="27" height="10"/>
<path d="M58.1463 78.4804H32.5527V71.168H49.9265"/>
</mask>
<path d="M58.1463 78.4804H32.5527V71.168H49.9265" fill="black"/>
<path d="M32.5527 78.4804H31.5527V79.4804H32.5527V78.4804ZM32.5527 71.168V70.168H31.5527V71.168H32.5527ZM58.1463 77.4804H32.5527V79.4804H58.1463V77.4804ZM33.5527 78.4804V71.168H31.5527V78.4804H33.5527ZM32.5527 72.168H49.9265V70.168H32.5527V72.168Z" fill="black" mask="url(#path-4-outside-1_1_210)"/>
<mask id="path-6-outside-2_1_210" maskUnits="userSpaceOnUse" x="31.5527" y="55.543" width="12" height="10" fill="black">
<rect fill="white" x="31.5527" y="55.543" width="12" height="10"/>
<path d="M42.614 63.8554H32.5527V56.543H39.5449"/>
</mask>
<path d="M42.614 63.8554H32.5527V56.543H39.5449" fill="black"/>
<path d="M32.5527 63.8554H31.5527V64.8554H32.5527V63.8554ZM32.5527 56.543V55.543H31.5527V56.543H32.5527ZM42.614 62.8554H32.5527V64.8554H42.614V62.8554ZM33.5527 63.8554V56.543H31.5527V63.8554H33.5527ZM32.5527 57.543H39.5449V55.543H32.5527V57.543Z" fill="black" mask="url(#path-6-outside-2_1_210)"/>
<path d="M35.2891 46.1605C35.2891 67.0217 52.256 84.0163 73.1449 84.0163C94.0061 84.0163 111.001 67.0493 111.001 46.1605C111.001 25.2993 94.0337 8.30469 73.1449 8.30469C52.2837 8.30469 35.2891 25.2717 35.2891 46.1605ZM44.6015 46.1605C44.6015 30.4054 57.3921 17.5905 73.1449 17.5905C88.8712 17.5905 101.689 30.406 101.715 46.1621C101.714 61.8881 88.8989 74.7039 73.1449 74.7039C57.417 74.7039 44.6015 61.9139 44.6015 46.1605Z" fill="#F45D11" stroke="#F45D11" stroke-width="2"/>
<path d="M67.2923 63.8073L67.6458 64.1608L67.9994 63.8073L94.8473 36.9594L95.2017 36.6049L94.8463 36.2513L89.6689 31.1006L89.3154 30.7489L88.9627 31.1015L67.6462 52.4181L55.4298 40.1757L55.0762 39.8214L54.7223 40.1754L49.5449 45.3528L49.1913 45.7063L49.5449 46.0599L67.2923 63.8073Z" fill="black" stroke="black"/>
</svg>
