<svg width="124" height="124" viewBox="0 0 124 124" fill="none" xmlns="http://www.w3.org/2000/svg">
<path d="M62.3136 9.68883L62.0009 9.58587L61.6882 9.68883L13.9959 25.3906L13.3086 25.6169V26.3404V47.3251C13.3086 74.4603 25.0558 91.1816 36.8924 101.126C42.7989 106.088 48.7175 109.355 53.1896 111.397C55.4267 112.418 57.3045 113.134 58.6415 113.602C59.3101 113.836 59.843 114.008 60.2169 114.126C60.3763 114.176 60.507 114.216 60.6042 114.246L60.6507 114.26C60.6709 114.266 60.6885 114.271 60.7039 114.276C60.721 114.282 60.7354 114.286 60.7474 114.29L60.9008 114.361H61.1204H62.0009H62.124L62.2434 114.331L63.0736 114.123C63.089 114.121 63.1038 114.118 63.1175 114.115C63.1256 114.113 63.1333 114.112 63.1405 114.11C63.1513 114.108 63.1626 114.106 63.1743 114.103C63.2115 114.095 63.2526 114.085 63.2961 114.075C63.4119 114.046 63.5671 114.005 63.7578 113.951C64.1403 113.843 64.6782 113.679 65.3488 113.454C66.6905 113.002 68.5708 112.299 70.809 111.286C75.2836 109.263 81.2031 105.998 87.1099 101.029C98.947 91.0705 110.693 74.294 110.693 47.1049V26.3404V25.6169L110.006 25.3906L62.3136 9.68883ZM101.356 47.3251C101.356 69.2278 92.9434 83.1417 83.8136 91.84C74.947 100.288 65.3597 103.855 62.0009 104.971C58.6421 103.855 49.0548 100.288 40.1882 91.84C31.0584 83.1417 22.6459 69.2278 22.6459 47.3251V32.3438L62.0009 19.2136L101.356 32.3438V47.3251Z" fill="#F45D11" stroke="#F45D11" stroke-width="2"/>
<path d="M74.7167 44.3085L74.7277 44.3202L74.7395 44.3312C75.2263 44.7876 75.5424 45.6712 75.5424 47.1494V69.8506C75.5424 71.3243 75.2282 72.2398 74.7279 72.74C74.2414 73.2265 73.5593 73.4944 72.6192 73.4944C71.6873 73.4944 70.9806 73.2307 70.4508 72.74C69.9882 72.2373 69.696 71.3193 69.696 69.8506V47.1494C69.696 45.6646 69.9947 44.7757 70.4504 44.32C70.9831 43.7873 71.6894 43.5056 72.6192 43.5056C73.5498 43.5056 74.2281 43.7873 74.7167 44.3085ZM80.4276 77.6429L80.4276 77.6429L80.4314 77.6389C82.2661 75.6762 83.1485 72.915 83.1485 69.4302V47.5698C83.1485 44.087 82.267 41.3433 80.4295 39.4191C78.5881 37.4506 75.9576 36.5 72.6192 36.5C69.2808 36.5 66.6502 37.4506 64.8089 39.4191C62.9713 41.3434 62.0898 44.087 62.0898 47.5698V69.4302C62.0898 72.915 62.9722 75.6762 64.807 77.639L64.8108 77.6429C66.6529 79.5707 69.2828 80.5 72.6192 80.5C75.9556 80.5 78.5855 79.5707 80.4276 77.6429Z" fill="black" stroke="black"/>
<path d="M41 42.2655H40.5V42.7655V47.4499V47.9499H41H45.6047V79.5197V80.0197H46.1047H52.7109H53.2109V79.5197V37.4806V36.9806H52.7109H48.2668H47.9064L47.7924 37.3225C47.5592 38.022 47.2879 38.6807 46.9788 39.2989C46.6852 39.886 46.3012 40.3977 45.8257 40.8367C45.3686 41.2585 44.7547 41.6075 43.9648 41.8708L43.9648 41.8707L43.9577 41.8732C43.2299 42.1279 42.2507 42.2655 41 42.2655Z" fill="black" stroke="black"/>
</svg>
