<svg width="54" height="54" viewBox="0 0 54 54" fill="none" xmlns="http://www.w3.org/2000/svg">
<path d="M26.8563 17.3926C20.9961 17.3926 16.1406 22.1644 16.1406 28.1082C16.1406 34.052 20.9124 38.8238 26.8563 38.8238C32.8001 38.8238 37.5719 33.9683 37.5719 28.1082C37.5719 22.2481 32.7164 17.3926 26.8563 17.3926ZM26.8563 34.9729C23.089 34.9729 19.9916 31.8754 19.9916 28.1082C19.9916 24.341 23.089 21.2435 26.8563 21.2435C30.6235 21.2435 33.721 24.341 33.721 28.1082C33.721 31.8754 30.6235 34.9729 26.8563 34.9729Z" fill="#787B83"/>
<path d="M37.9903 19.5684C39.3311 19.5684 40.418 18.4815 40.418 17.1407C40.418 15.7998 39.3311 14.7129 37.9903 14.7129C36.6494 14.7129 35.5625 15.7998 35.5625 17.1407C35.5625 18.4815 36.6494 19.5684 37.9903 19.5684Z" fill="#787B83"/>
<path d="M44.2701 10.862C42.0935 8.60171 38.996 7.42969 35.48 7.42969H18.2345C10.9512 7.42969 6.0957 12.2852 6.0957 19.5685V36.7302C6.0957 40.33 7.26773 43.4275 9.61177 45.6878C11.8721 47.8645 14.8859 48.9528 18.3182 48.9528H35.3963C38.996 48.9528 42.0098 47.7807 44.1864 45.6878C46.4467 43.5112 47.6188 40.4137 47.6188 36.814V19.5685C47.6188 16.0524 46.4467 13.0387 44.2701 10.862ZM43.9353 36.814C43.9353 39.4092 43.0144 41.502 41.5075 42.9252C40.0006 44.3484 37.9077 45.1018 35.3963 45.1018H18.3182C15.8067 45.1018 13.7138 44.3484 12.207 42.9252C10.7001 41.4183 9.94663 39.3254 9.94663 36.7302V19.5685C9.94663 17.057 10.7001 14.9641 12.207 13.4572C13.6301 12.0341 15.8067 11.2806 18.3182 11.2806H35.5637C38.0752 11.2806 40.1681 12.0341 41.6749 13.5409C43.0981 15.0478 43.9353 17.1407 43.9353 19.5685V36.814Z" fill="#787B83"/>
</svg>
