<svg width="32" height="32" viewBox="0 0 32 32" fill="none" xmlns="http://www.w3.org/2000/svg">
<path d="M15.9145 10.3066C12.4418 10.3066 9.56445 13.1344 9.56445 16.6566C9.56445 20.1789 12.3922 23.0066 15.9145 23.0066C19.4367 23.0066 22.2645 20.1293 22.2645 16.6566C22.2645 13.184 19.3871 10.3066 15.9145 10.3066ZM15.9145 20.7246C13.682 20.7246 11.8465 18.8891 11.8465 16.6566C11.8465 14.4242 13.682 12.5887 15.9145 12.5887C18.1469 12.5887 19.9824 14.4242 19.9824 16.6566C19.9824 18.8891 18.1469 20.7246 15.9145 20.7246Z" fill="black"/>
<path d="M22.5129 11.5961C23.3074 11.5961 23.9516 10.952 23.9516 10.1574C23.9516 9.36287 23.3074 8.71875 22.5129 8.71875C21.7183 8.71875 21.0742 9.36287 21.0742 10.1574C21.0742 10.952 21.7183 11.5961 22.5129 11.5961Z" fill="black"/>
<path d="M26.2342 6.43633C24.9443 5.09688 23.1088 4.40234 21.0252 4.40234H10.8057C6.48965 4.40234 3.6123 7.27969 3.6123 11.5957V21.7656C3.6123 23.8988 4.30684 25.7344 5.6959 27.0738C7.03535 28.3637 8.82129 29.0086 10.8553 29.0086H20.9756C23.1088 29.0086 24.8947 28.3141 26.1846 27.0738C27.524 25.784 28.2186 23.9485 28.2186 21.8152V11.5957C28.2186 9.51211 27.524 7.72617 26.2342 6.43633ZM26.0358 21.8152C26.0358 23.3531 25.4901 24.5934 24.5971 25.4367C23.7041 26.2801 22.4639 26.7266 20.9756 26.7266H10.8553C9.367 26.7266 8.12676 26.2801 7.23379 25.4367C6.34082 24.5438 5.89434 23.3035 5.89434 21.7656V11.5957C5.89434 10.1074 6.34082 8.86719 7.23379 7.97422C8.07715 7.13086 9.367 6.68438 10.8553 6.68438H21.0748C22.5631 6.68438 23.8033 7.13086 24.6963 8.02383C25.5397 8.9168 26.0358 10.157 26.0358 11.5957V21.8152Z" fill="black"/>
</svg>
