<svg width="224" height="78" viewBox="0 0 224 78" fill="none" xmlns="http://www.w3.org/2000/svg">
<path fill-rule="evenodd" clip-rule="evenodd" d="M64.1327 14.0827L32.1367 0.0742188L0.140625 14.0827V77.9206H64.1327V14.0827Z" fill="black"/>
<path fill-rule="evenodd" clip-rule="evenodd" d="M23.1639 57.3762L22.8321 57.2265L22.8281 57.2226V57.2186L22.8321 57.2226L22.8953 57.2501L22.919 50.4704L31.3022 49.3398L32.1318 49.5998L40.4321 52.5347L23.1639 57.3762Z" fill="#F45D11"/>
<path fill-rule="evenodd" clip-rule="evenodd" d="M53.4928 57.1562L32.1358 63.6168H32.1318L23.8711 59.9334L22.4805 59.311L23.8592 59.9216L32.1318 56.8607L43.6834 53.6855L53.4928 57.1562Z" fill="#F45D11"/>
<path fill-rule="evenodd" clip-rule="evenodd" d="M11.8047 23.2776V34.4182L11.9825 54.5643L19.457 57.897L19.299 34.2173L19.3109 19.9922L11.8047 23.2776Z" fill="#F45D11"/>
<path fill-rule="evenodd" clip-rule="evenodd" d="M32.1319 14.3789V63.6174L23.8632 59.9341L22.4726 59.3156L22.1289 59.1619V59.1501L22.2158 34.1822L22.2909 18.6886L32.1319 14.3789Z" fill="#F45D11"/>
<path d="M224.113 14H64.1328V77.8103H224.113V14Z" fill="#F45D11"/>
<path fill-rule="evenodd" clip-rule="evenodd" d="M76.9141 31.1961H81.4928V56.0931H89.0267V60.2413H76.918V31.1961H76.9141ZM98.6188 31.1961V53.6389C98.6188 54.6986 98.8321 55.4313 99.2627 55.8449C99.6933 56.2586 100.27 56.4674 100.989 56.4674C101.712 56.4674 102.285 56.2586 102.716 55.8449C103.146 55.4313 103.359 54.6986 103.359 53.6389V31.1961H107.689V53.3158C107.689 55.6677 107.113 57.4719 105.963 58.7325C104.813 59.9892 103.111 60.6195 100.867 60.6195C98.6188 60.6195 96.92 59.9892 95.7704 58.7325C94.6207 57.4719 94.0439 55.6677 94.0439 53.3158V31.1961H98.6188ZM113.453 38.1807C113.453 35.821 114.014 34.0167 115.14 32.7522C116.262 31.4916 117.949 30.8652 120.197 30.8652C122.445 30.8652 124.128 31.4955 125.254 32.7522C126.376 34.0128 126.941 35.8171 126.941 38.1689V39.0828H122.611V37.8774C122.611 36.8255 122.409 36.0849 122.006 35.6555C121.603 35.2261 121.042 35.0134 120.319 35.0134C119.597 35.0134 119.036 35.2261 118.633 35.6555C118.23 36.0849 118.028 36.8255 118.028 37.8774C118.028 38.874 118.249 39.7525 118.696 40.5128C119.138 41.2731 119.695 41.994 120.359 42.6716C121.027 43.3492 121.738 44.0268 122.5 44.7043C123.263 45.3819 123.978 46.1225 124.645 46.9261C125.313 47.7298 125.866 48.6398 126.309 49.664C126.751 50.6883 126.976 51.8898 126.976 53.2725C126.976 55.6243 126.399 57.4286 125.25 58.6892C124.1 59.9498 122.398 60.5761 120.154 60.5761C117.906 60.5761 116.207 59.9537 115.057 58.7089C113.908 57.464 113.331 55.6637 113.331 53.3158V51.5313H117.661V53.6073C117.661 54.6592 117.874 55.3919 118.305 55.8055C118.735 56.2192 119.312 56.428 120.031 56.428C120.754 56.428 121.327 56.2192 121.758 55.8055C122.188 55.3919 122.401 54.6592 122.401 53.5995C122.401 52.6028 122.18 51.7243 121.734 50.964C121.291 50.1958 120.734 49.4789 120.071 48.8013C119.403 48.1237 118.692 47.4461 117.925 46.7686C117.163 46.091 116.448 45.3425 115.784 44.5428C115.117 43.7392 114.563 42.8292 114.121 41.8049C113.675 40.7689 113.453 39.5634 113.453 38.1807ZM147.642 60.2452H143.024L142.234 54.9743H136.612L135.822 60.2452H131.618L136.28 31.1961H142.98L147.642 60.2452ZM137.197 51.031H141.609L139.405 36.341L137.197 51.031ZM162.686 51.8189L165.807 31.1961H172.175V60.2452H167.845V39.4137L164.681 60.2452H160.355L156.942 39.7052V60.2452H152.948V31.1961H159.316L162.686 51.8189ZM183.099 31.1961V53.6389C183.099 54.6986 183.312 55.4313 183.743 55.8449C184.173 56.2586 184.75 56.4674 185.469 56.4674C186.192 56.4674 186.765 56.2586 187.196 55.8449C187.626 55.4313 187.839 54.6986 187.839 53.6389V31.1961H192.169V53.3158C192.169 55.6677 191.593 57.4719 190.443 58.7325C189.293 59.9892 187.591 60.6195 185.347 60.6195C183.099 60.6195 181.4 59.9892 180.25 58.7325C179.101 57.4719 178.524 55.6677 178.524 53.3158V31.1961H183.099ZM197.183 31.1961H211.334V35.3443H206.55V60.2413H201.971V35.3443H197.187V31.1961H197.183Z" fill="white"/>
</svg>
