<svg width="124" height="124" viewBox="0 0 124 124" fill="none" xmlns="http://www.w3.org/2000/svg">
<path d="M62.0003 11.9863C55.1088 11.995 48.3728 14.0354 42.6348 17.8523C36.8968 21.6692 32.4116 27.0933 29.7401 33.446C27.0687 39.7987 26.3296 46.798 27.6153 53.5686C28.901 60.3391 32.1545 66.5803 36.9687 71.5115V115.217L62.0003 102.701L87.0319 115.217V71.5115C91.8462 66.5803 95.0996 60.3391 96.3854 53.5686C97.6711 46.798 96.932 39.7987 94.2605 33.446C91.5891 27.0933 87.1039 21.6692 81.3659 17.8523C75.6279 14.0354 68.8919 11.995 62.0003 11.9863ZM62.0003 21.999C66.9511 21.999 71.7907 23.4671 75.9071 26.2176C80.0236 28.9681 83.2319 32.8775 85.1265 37.4514C87.0211 42.0253 87.5168 47.0584 86.551 51.914C85.5851 56.7697 83.2011 61.2299 79.7003 64.7306C76.1996 68.2313 71.7394 70.6154 66.8838 71.5812C62.0281 72.5471 56.9951 72.0514 52.4211 70.1568C47.8472 68.2622 43.9378 65.0538 41.1873 60.9374C38.4368 56.821 36.9687 51.9814 36.9687 47.0306C36.9687 40.3918 39.606 34.0249 44.3003 29.3306C48.9946 24.6362 55.3615 21.999 62.0003 21.999ZM62.0003 91.4867L46.9814 98.9962V78.6205C51.6662 80.8783 56.7998 82.0508 62.0003 82.0508C67.2009 82.0508 72.3345 80.8783 77.0193 78.6205V98.9962L62.0003 91.4867Z" fill="#F45D11"/>
<path d="M62.0019 67.0545C65.9625 67.0545 69.8342 65.88 73.1273 63.6796C76.4204 61.4792 78.9871 58.3517 80.5028 54.6926C82.0185 51.0334 82.415 47.007 81.6424 43.1225C80.8697 39.2379 78.9625 35.6698 76.1619 32.8692C73.3613 30.0686 69.7931 28.1614 65.9086 27.3887C62.0241 26.616 57.9976 27.0126 54.3385 28.5282C50.6794 30.0439 47.5518 32.6106 45.3514 35.9037C43.151 39.1969 41.9766 43.0686 41.9766 47.0292C41.9766 52.3402 44.0864 57.4338 47.8418 61.1892C51.5973 64.9447 56.6908 67.0545 62.0019 67.0545ZM62.0019 37.0166C63.9822 37.0166 65.918 37.6038 67.5646 38.704C69.2111 39.8042 70.4945 41.368 71.2523 43.1975C72.0102 45.0271 72.2084 47.0403 71.8221 48.9826C71.4358 50.9248 70.4821 52.7089 69.0819 54.1092C67.6816 55.5095 65.8975 56.4631 63.9552 56.8495C62.013 57.2358 59.9998 57.0375 58.1702 56.2797C56.3406 55.5218 54.7768 54.2385 53.6766 52.5919C52.5764 50.9454 51.9892 49.0095 51.9892 47.0292C51.9892 44.3737 53.0441 41.8269 54.9218 39.9492C56.7996 38.0715 59.3463 37.0166 62.0019 37.0166Z" fill="black"/>
</svg>
