<svg width="124" height="124" viewBox="0 0 124 124" fill="none" xmlns="http://www.w3.org/2000/svg">
<path d="M98.1654 10.334H25.832V25.834H10.332V46.5007C10.3521 51.4391 12.1399 56.2072 15.3718 59.9413C18.6037 63.6755 23.0659 66.1289 27.9504 66.8573C29.518 70.5832 31.9381 73.8891 35.016 76.5094C38.0939 79.1297 41.7438 80.9911 45.672 81.944L42.107 103.334H30.9987V113.667H92.9987V103.334H81.8904L78.3254 81.944C82.2536 80.9911 85.9035 79.1297 88.9814 76.5094C92.0593 73.8891 94.4794 70.5832 96.047 66.8573C100.932 66.1289 105.394 63.6755 108.626 59.9413C111.857 56.2072 113.645 51.4391 113.665 46.5007V25.834H98.1654V10.334ZM20.6654 46.5007V36.1673H25.832V55.439C24.2627 54.5329 22.9593 53.2302 22.0524 51.6613C21.1456 50.0925 20.6672 48.3127 20.6654 46.5007ZM72.332 72.334H66.2354L71.402 103.334H52.5954L57.762 72.334H51.6654C47.5545 72.334 43.612 70.701 40.7052 67.7941C37.7984 64.8873 36.1654 60.9448 36.1654 56.834V20.6673H87.832V56.834C87.832 60.9448 86.199 64.8873 83.2922 67.7941C80.3854 70.701 76.4429 72.334 72.332 72.334ZM103.332 36.1673V46.5007C103.33 48.3127 102.852 50.0925 101.945 51.6613C101.038 53.2302 99.7347 54.5329 98.1654 55.439V36.1673H103.332Z" fill="#F45D11"/>
<path d="M62 31C58.9344 31 55.9376 31.9091 53.3887 33.6122C50.8397 35.3154 48.853 37.7362 47.6799 40.5684C46.5067 43.4007 46.1998 46.5172 46.7978 49.5239C47.3959 52.5306 48.8721 55.2924 51.0399 57.4602C53.2076 59.6279 55.9694 61.1041 58.9761 61.7022C61.9828 62.3002 65.0993 61.9933 67.9316 60.8201C70.7639 59.647 73.1846 57.6603 74.8878 55.1113C76.5909 52.5624 77.5 49.5656 77.5 46.5C77.5 42.3891 75.867 38.4467 72.9602 35.5398C70.0534 32.633 66.1109 31 62 31ZM62 51.6667C60.9781 51.6667 59.9792 51.3636 59.1296 50.7959C58.2799 50.2282 57.6177 49.4213 57.2266 48.4772C56.8356 47.5331 56.7333 46.4943 56.9326 45.492C57.132 44.4898 57.6241 43.5692 58.3466 42.8466C59.0692 42.124 59.9898 41.632 60.992 41.4326C61.9943 41.2333 63.0331 41.3356 63.9772 41.7266C64.9213 42.1177 65.7282 42.7799 66.2959 43.6296C66.8637 44.4792 67.1667 45.4781 67.1667 46.5C67.1667 47.8703 66.6223 49.1844 65.6534 50.1534C64.6845 51.1223 63.3703 51.6667 62 51.6667Z" fill="black"/>
</svg>
