<svg width="124" height="124" viewBox="0 0 124 124" fill="none" xmlns="http://www.w3.org/2000/svg">
<path d="M50.0433 17.0955V10V9.5H49.5433H38.2491H37.7491V10V17.0955H14H13.5V17.5955V113.034V113.534H14H110H110.5V113.034V17.5955V17.0955H110H86.2509V10V9.5H85.7509H74.4567H73.9567V10V17.0955H50.0433ZM50.0433 35.7585V28.9933H73.9567V35.7585V36.2585H74.4567H85.7509H86.2509V35.7585V28.9933H98.5381V101.306H25.4619V28.9933H37.7491V35.7585V36.2585H38.2491H49.5433H50.0433V35.7585Z" fill="#F45D11" stroke="#F45D11"/>
<path d="M87.2375 47.4835V46.9835H86.7375H66.7918H66.2918V47.4835V53.5277V54.0277H66.7918H79.3766L69.8145 89.6629L69.6456 90.2925H70.2974H76.946H77.3295L77.4289 89.922L87.2204 53.4154L87.2375 53.3518V53.2859V47.4835Z" fill="black" stroke="black"/>
<path d="M56.4899 87.9057L56.4899 87.9057L56.4937 87.9018C58.3822 85.9275 59.2918 83.1478 59.2918 79.6383V76.314C59.2918 74.2093 58.962 72.3664 58.2847 70.7991C57.7051 69.4236 56.8163 68.3175 55.6256 67.4889C58.0994 65.7662 59.2918 62.8793 59.2918 58.9674V57.6377C59.2918 54.1301 58.3831 51.3682 56.4918 49.4327C54.5972 47.4532 51.8704 46.5 48.3959 46.5C44.9214 46.5 42.1946 47.4532 40.3 49.4327C38.4087 51.3682 37.5 54.1301 37.5 57.6377V58.9674C37.5 62.908 38.6878 65.7997 41.1595 67.4936C39.9722 68.3216 39.0857 69.4261 38.5072 70.799C37.8299 72.3663 37.5 74.2092 37.5 76.314V79.6383C37.5 83.1478 38.4096 85.9275 40.2981 87.9018L40.2981 87.9018L40.3019 87.9057C42.1972 89.8441 44.9233 90.776 48.3959 90.776C51.8685 90.776 54.5946 89.8441 56.4899 87.9057ZM50.6627 82.8911L50.6574 82.8958L50.6522 82.9007C50.0708 83.4479 49.3319 83.7319 48.3959 83.7319C47.4601 83.7319 46.6948 83.4477 46.0687 82.8911C45.5158 82.3997 45.1485 81.3295 45.1485 79.457V75.5283C45.1485 73.876 45.4678 72.8213 45.9888 72.2346C46.5653 71.5906 47.3483 71.2534 48.3959 71.2534C49.4444 71.2534 50.2 71.5905 50.7333 72.2239L50.7425 72.2348L50.7523 72.2451C51.3058 72.8312 51.6433 73.8809 51.6433 75.5283V79.4516C51.6028 81.3207 51.2199 82.3958 50.6627 82.8911ZM50.712 54.4351L50.7175 54.4403L50.7231 54.4453C51.276 54.9368 51.6433 56.0069 51.6433 57.8794V60.2367C51.6433 61.8864 51.2846 62.8695 50.7231 63.3685C50.097 63.9251 49.3317 64.2093 48.3959 64.2093C47.4174 64.2093 46.6354 63.9236 46.0137 63.3734C45.4875 62.874 45.1485 61.8875 45.1485 60.2367V57.8794C45.1485 56.0069 45.5158 54.9368 46.0687 54.4453L46.0743 54.4403L46.0798 54.4351C46.7073 53.8425 47.4689 53.5441 48.3959 53.5441C49.323 53.5441 50.0845 53.8425 50.712 54.4351Z" fill="black" stroke="black"/>
</svg>
